<svg xmlns="http://www.w3.org/2000/svg" viewBox="0 0 549.36 107.63"><defs><style>.cls-1,.cls-2{fill:#54b00f;}.cls-1{fill-rule:evenodd;}</style></defs><title>logo_total_gr</title><g id="Laag_2" data-name="Laag 2"><g id="Laag_1-2" data-name="Laag 1"><path class="cls-1" d="M97.62,107.63,81.89,92A46.37,46.37,0,0,0,92.51,81.62l15.62,15.54L97.62,107.63Z"/><path class="cls-1" d="M13.64,89.56a53.67,53.67,0,0,1,4.51-76,54.27,54.27,0,0,1,76.33,4.49A53.67,53.67,0,0,1,90,94a54.27,54.27,0,0,1-76.34-4.49Zm67.82-5a40.94,40.94,0,0,0,3.44-58,41.4,41.4,0,0,0-58.24-3.43,40.94,40.94,0,0,0-3.44,58,41.4,41.4,0,0,0,58.24,3.43Z"/><path class="cls-1" d="M35.52,55.41c-.83-11.75,5.68-18.22,15.7-22.14,9.82-3,19.48-3.32,28,13.79.83,1.46,1.71,3.13,4.09,3.94,2.07.7,4.94,5.58-1.75,6.32-6.13.68-11.1-2.49-18.45,1.64A75.15,75.15,0,0,0,50,69.19c-5.19,4.78-17,11.37-21.33,7-1-.84-.73-2,6.87-13.17a24.63,24.63,0,0,0,0-7.56Z"/><path class="cls-1" d="M49.13,32.18c-2.95-1.75-6.33-.19-4,1.41,2.25.43,2,1.4-.54,3l7.7-1.2,5.12-3.53c-.79-.16-2,0-1.1-1.43.71-1.12.58-2-.77-2.46-.9-.24-1.37,1-1.84,2.3-1.27,2.29-2.77,3.11-4.59,1.91Z"/><path class="cls-2" d="M161.87,86.94H139L119.17,20.82h20.65l10.88,40.1h.19l10.7-40.1h21Z"/><path class="cls-2" d="M186.34,20.82h20.47V86.94H186.34Z"/><path class="cls-2" d="M217.41,20.82h20.93L257.7,56.19h.19V20.82h19.35V86.94H257.32L236.95,50.82h-.19V86.94H217.41Z"/><path class="cls-2" d="M287.93,20.82h33.58c22.14,0,30,16.3,30,33,0,20.28-10.79,33.15-34,33.15H287.93ZM308.4,70h8C329.15,70,331,59.71,331,53.51c0-4.17-1.3-15.74-16.09-15.74H308.4Z"/><path class="cls-2" d="M360.32,20.82h55V37.77H380.78V46h31.35V61.75H380.78V70h35.54V86.94h-56Z"/><path class="cls-2" d="M425.81,20.82h39c11.63,0,21.68,6.39,21.68,18.89,0,6.85-3.16,14.08-10,16.58,5.58,2.13,9,8.24,9.77,16.48.28,3.24.37,11.11,2.23,14.17H468.05a47.58,47.58,0,0,1-1.67-10.19c-.56-6.3-1.12-12.87-9.21-12.87H446.28V86.94H425.81Zm20.47,28.89H457c3.81,0,9-.65,9-6.57,0-4.17-2.33-6.58-10.14-6.58h-9.58Z"/><path class="cls-2" d="M510.29,37.77H491.68V20.82h57.68V37.77H530.76V86.94H510.29Z"/></g></g></svg>